<svg xmlns="http://www.w3.org/2000/svg" fill="#272A40" viewBox="0 0 1533 2048"><path d="M0 986q0-156 60.5-298.5t163-244.5 244-163T765 219q157 0 299 61t245 163.5T1473 688t61 297q0 156-61 298.5T1309 1529t-245 163.5-298 60.5q-155 0-297-60.5t-244.5-163T61 1285 0 986zm168 0q0 162 80.5 299.5t218.5 217 299 79.5q121 0 232-47.5t191.5-127.5 128-190.5T1365 985q0-244-178-422-178-176-422-176-121 0-231.5 48T343 563 215.5 754 168 986zm350-229q-2-11 3.5-17t15.5-2l602 249q12 2 12 10 0 9-12 14l-229 104q-10 4-15 15l-104 230q-5 11-14 11-8 0-10-11z"/></svg>