<svg xmlns="http://www.w3.org/2000/svg" fill="#272A40" viewBox="0 0 1538 2048"><path d="M0 989q0-156 61.5-298.5T226 445t245-163.5T769 221t298.5 60.5T1313 445t164 245 61 299-61 299-164 244.5-245.5 163T769 1756t-298.5-61T225 1531 61 1286 0 989zm170 0q0 245 177 422 176 176 422 176 163 0 301.5-80.5t219-218T1370 989q0-121-47.5-232T1194 565.5t-192-128T769 390q-121 0-231.5 47.5t-191 128T218 757t-48 232zm334-259q-5-11 1-16.5t16-.5l238 89q10 4 23 0l235-89q10-5 16 .5t2 16.5l-253 599q-3 10-13 10-7 0-10-10z"/></svg>