<svg xmlns="http://www.w3.org/2000/svg" fill="#272A40" viewBox="0 0 1541 2048"><path d="M0 986q0-157 61.5-300t165-246.5 246-164.5T771 214t299 61 246 164.5T1480.5 686t61.5 300-61.5 300-165 245.5-246 163.5-298.5 61q-157 0-300-61t-246-164.5-164-246T0 986zm170 0q0 245 179 424 177 177 422 177 163 0 302-81t220-219.5 81-300.5-81-300.5T1073 466t-302-81q-162 0-300.5 81T251 685.5 170 986zm248 0q0-9 12-10l601-258q11-5 16.5 1.5t.5 16.5l-89 240q-7 10 0 20l89 238q5 10-.5 16t-16.5 1L430 996q-12-1-12-10z"/></svg>