<svg xmlns="http://www.w3.org/2000/svg" fill="#272A40" viewBox="0 0 1636 2048"><path d="M0 1193q0-36 25-59.5t68-23.5h609q43 0 68 23.5t25 59.5q0 44-24.5 68.5T702 1286H93q-43 0-68-24.5T0 1193zm0-631q0-36 25-59t68-23h316q43 0 68.5 23t25.5 59q0 43-25.5 68.5T409 656H93q-43 0-68-25T0 562zm105 946q0-35 29.5-64.5T199 1414q42 0 67 28.5t25 65.5q0 44-24.5 69t-67.5 25q-37 0-65.5-26t-28.5-68zm152-632q0-37 23.5-65.5T338 782q42 0 68 28.5t26 65.5q0 44-25 69t-69 25q-36 0-58.5-25.5T257 876zm105 632q0-37 26-65.5t68-28.5h409l94 94q0 42-28.5 68t-65.5 26H456q-44 0-69-25.5t-25-68.5zm141-632q0-35 29.5-64.5T597 782h409q42 0 67.5 28.5T1099 876q0 44-25 69t-68 25H597q-37 0-65.5-26T503 876zm81-314q0-36 25.5-59t68.5-23h609q36 0 65 24t29 58q0 42-28.5 68t-65.5 26H678q-44 0-69-25.5T584 562zm281 631q0-34 29-58.5t65-24.5 65 24.5 29 58.5q0 42-28.5 67.5T959 1286t-65.5-25.5T865 1193zm164 315q0-37 25.5-65.5t67.5-28.5h199q42 0 67.5 28t25.5 66q0 44-24.5 69t-68.5 25h-199q-43 0-68-25t-25-69zm93-315q0-34 29-58.5t65-24.5h327q35 0 58 24t23 59q0 43-22.5 68t-58.5 25h-327q-37 0-65.5-25.5T1122 1193zm47-317q0-35 29.5-64.5T1263 782h209q34 0 58 29t24 65q0 43-23 68.5t-59 25.5h-209q-37 0-65.5-26t-28.5-68zm292-314q0-35 23.5-58.5T1543 480q43 0 68.5 23t25.5 59q0 43-25.5 68.5T1543 656q-36 0-59-25.5t-23-68.5z"/></svg>