<svg xmlns="http://www.w3.org/2000/svg" fill="#272A40" viewBox="0 0 842 2048"><path d="M3 974v-2q-1-13 .5-39T14 847t26.5-123T95 580t87.5-154T316 277.5 501 145q25-14 52.5-6t40.5 33q14 25 6.5 53T568 267Q358 382 245 592q86-40 174-40 172 0 295 122.5T837 969q0 13-.5 25.5t-4.5 55-12 82-25 99-40.5 113-62 117.5-86 119.5-115.5 112T343 1794q-15 9-33 9-41 0-62-37-14-25-6-52.5t33-40.5q215-120 326-329-87 41-182 41-111 0-206.5-55t-152-150T3 974zm181-5q0 98 69 167t166 69q91 0 158.5-60.5T655 994l1-24q0-4 1-5-1-96-70.5-162.5T419 736q-89 0-155.5 58T186 939l-2 27v3z"/></svg>