<svg xmlns="http://www.w3.org/2000/svg" fill="#272A40" viewBox="0 0 2129 2048"><path d="M0 1084q0-107 193-193t502-122q2-150 110.5-257.5T1064 404q151 0 259.5 107.5T1434 769q308 36 501.5 122t193.5 193q0 91-142.5 168.5T1599 1375t-535 45q-289 0-534-45t-387.5-122.5T0 1084zm249 0q0 25 18 42.5t43 17.5 42-17.5 17-42.5-17-42.5-42-17.5-43 17.5-18 42.5zm378 0q0 25 17.5 42.5T687 1144t42.5-17.5T747 1084t-17.5-42.5T687 1024t-42.5 17.5T627 1084zm189-327q113-10 248-10 136 0 250 10-7-97-78.5-164T1064 526q-98 0-170 67t-78 164zm189 327q0 25 17 42.5t42 17.5 43-17.5 18-42.5-18-42.5-43-17.5-42 17.5-17 42.5zm377 0q0 25 17.5 42.5t42.5 17.5q24 0 42-17.5t18-42.5-18-42.5-42-17.5q-26 0-43 17.5t-17 42.5zm377 0q0 25 17.5 42.5t41.5 17.5q25 0 43-17.5t18-42.5-17.5-42.5-43.5-17.5q-24 0-41.5 17.5T1759 1084z"/></svg>