<svg xmlns="http://www.w3.org/2000/svg" fill="#272A40" viewBox="0 0 1537 2048"><path d="M0 988q0-209 103.5-386.5T384 321t385-103q156 0 298 61t245 164 164 245.5 61 299.5q0 156-61 298.5t-164 245-245 163-298 60.5q-157 0-299.5-61T224 1530 60.5 1285.5 0 988zm169 0q0 243 177 422 177 177 423 177 162 0 300-80.5t219-218.5 81-300-81-300.5-219-219T769 388t-300 80.5-219 219T169 988zm541 0V533q0-24 16.5-40.5T767 476q23 0 40 16.5t17 40.5v241l51-89q12-20 35.5-26t43.5 6q20 11 26.5 34t-5.5 43l-156 267q-13 36-52 36-24 0-40.5-16.5T710 988z"/></svg>