<svg xmlns="http://www.w3.org/2000/svg" fill="#272A40" viewBox="0 0 1990 2048"><path d="M0 1024q0 49 37 82 35 35 83 35h807q53 0 93.5 39t40.5 94-40.5 95-93.5 40-94-41q-40-35-83-35-49 0-83 33.5t-34 82.5q0 48 34 82 109 109 260 109t257.5-107.5T1291 1274q0-152-106.5-260T927 906H120q-48 0-84 35t-36 83zm0-413q0 46 37 79 34 34 83 34h1505q151 0 258.5-107.5T1991 358t-107-257T1625-5q-155 0-258 104-33 34-33 85 0 50 32 81.5t81 31.5q50 0 86-33 38-38 92-38t93.5 38.5T1758 358t-39.5 95-93.5 40H120q-48 0-84 35T0 611zm1384 1144h263l176-851h-263z"/></svg>